<mxfile host="app.diagrams.net" modified="2024-10-19T08:54:20.796Z" agent="Mozilla/5.0 (X11; Linux x86_64) AppleWebKit/537.36 (KHTML, like Gecko) Chrome/129.0.0.0 Safari/537.36" version="24.6.5" etag="RsahvqrjEXZ8EIw1cGn8" type="github">
  <diagram name="Page-1" id="wJFtoS6p5kB5am7K0bET">
    <mxGraphModel>
      <root>
        <mxCell id="0" />
        <mxCell id="1" parent="0" />
      </root>
    </mxGraphModel>
  </diagram>
</mxfile>
